<?xml version="1.0" standalone="no"?>
<!DOCTYPE svg PUBLIC "-//W3C//DTD SVG 20010904//EN"
 "http://www.w3.org/TR/2001/REC-SVG-20010904/DTD/svg10.dtd">
<svg version="1.0" xmlns="http://www.w3.org/2000/svg"
 width="326.000000pt" height="333.000000pt" viewBox="0 0 326.000000 333.000000"
 preserveAspectRatio="xMidYMid meet">

<g transform="translate(0.000000,333.000000) scale(0.100000,-0.100000)"
fill="#000000" stroke="none">
<path d="M0 1665 l0 -1665 1630 0 1630 0 0 1665 0 1665 -1630 0 -1630 0 0
-1665z m1912 1016 c29 -11 71 -23 93 -26 57 -9 163 -43 190 -61 55 -36 97
-129 130 -288 16 -76 20 -150 8 -144 -34 16 -84 50 -127 86 -112 96 -220 125
-449 124 -179 -1 -255 -13 -345 -53 -124 -56 -175 -93 -213 -158 -77 -130 -53
-314 51 -398 l27 -22 7 112 c7 126 25 172 54 144 20 -21 30 -95 31 -227 l1
-106 63 -27 c111 -48 155 -58 409 -92 l37 -5 3 280 c3 292 6 308 45 293 30
-12 37 -61 42 -318 l6 -259 35 -9 c140 -36 219 -78 297 -159 65 -66 86 -124
91 -250 6 -143 -22 -236 -106 -351 -66 -92 -211 -174 -337 -191 -27 -4 -74
-15 -102 -23 -46 -15 -75 -15 -230 -6 -153 10 -190 16 -266 41 -85 29 -187 83
-236 126 -13 12 -74 82 -136 156 -101 122 -155 175 -221 220 -183 124 -217
162 -247 270 -21 75 -28 142 -15 138 6 -2 34 -37 62 -78 34 -51 68 -85 101
-107 110 -70 224 -162 300 -243 224 -239 297 -312 345 -343 37 -24 182 -56
285 -63 153 -11 333 25 472 93 60 29 143 118 174 188 24 51 25 157 3 222 -24
72 -107 168 -168 197 -28 13 -63 26 -77 29 l-26 7 -7 -288 c-6 -282 -16 -387
-29 -332 -16 64 -30 233 -36 419 -5 167 -9 205 -21 211 -8 4 -73 15 -144 25
-149 20 -230 39 -305 71 -29 13 -55 24 -57 24 -2 0 -4 -28 -4 -63 0 -34 -4
-98 -9 -142 -5 -44 -13 -115 -16 -157 -7 -81 -20 -101 -30 -45 -8 51 -27 243
-34 358 l-6 105 -65 55 c-78 66 -155 174 -177 248 -22 78 -13 201 20 275 124
269 367 412 735 431 78 4 142 11 142 15 0 5 -16 18 -35 30 -19 12 -35 23 -35
25 0 2 -3 10 -6 19 -8 20 -6 20 58 -3z"/>
<path d="M2183 2443 c-18 -6 -16 -58 2 -77 17 -17 41 -12 49 10 11 28 -27 76
-51 67z"/>
</g>
</svg>
